                <svg xmlns="http://www.w3.org/2000/svg" width="36" height="49" viewBox="0 0 36 49" fill="none">
                    <path d="M22.3195 36.358H13.2295C12.826 36.358 12.4723 36.5104 12.1693 36.8129C11.8661 37.1161 11.7147 37.4692 11.7147 37.8733V46.9637C11.7147 47.3678 11.8666 47.7214 12.1693 48.0241C12.4723 48.3265 12.8256 48.4786 13.2295 48.4786H22.3195C22.723 48.4786 23.0776 48.3269 23.3794 48.0241C23.6832 47.7214 23.8348 47.3678 23.8348 46.9637V37.8733C23.8348 37.4692 23.6836 37.1161 23.3794 36.8129C23.0776 36.5096 22.723 36.358 22.3195 36.358Z" fill="#6B7280" />
                    <path d="M34.2508 9.14687C33.2153 7.23952 31.8775 5.63065 30.2358 4.31734C28.5952 3.00456 26.7508 1.95617 24.706 1.17375C22.6608 0.391605 20.6284 0 18.608 0C10.9325 0 5.07479 3.35823 1.03457 10.0748C0.832799 10.4029 0.763154 10.7563 0.826166 11.1351C0.889577 11.5135 1.08525 11.8292 1.41344 12.0817L7.625 16.8163C7.95319 17.018 8.26892 17.1189 8.57204 17.1189C9.02666 17.1189 9.41773 16.9166 9.74632 16.5127C11.564 14.2405 12.9151 12.7887 13.7987 12.1571C14.8847 11.4251 16.2477 11.0593 17.889 11.0593C19.4291 11.0593 20.786 11.4633 21.9605 12.2707C23.1345 13.0788 23.721 14.0131 23.721 15.0736C23.721 16.2598 23.4059 17.2197 22.7745 17.952C22.1434 18.684 21.0826 19.3907 19.5926 20.0727C17.6237 20.9563 15.8175 22.3263 14.1771 24.1821C12.5355 26.0382 11.7152 28.014 11.7152 30.1095V31.8138C11.7152 32.294 11.8471 32.7672 12.1127 33.2343C12.378 33.7018 12.6997 33.9351 13.0787 33.9351H22.1685C22.5726 33.9351 22.9257 33.7399 23.229 33.3472C23.5313 32.9569 23.6835 32.5465 23.6835 32.1178C23.6835 31.4868 24.0306 30.64 24.7244 29.5801C25.4189 28.5196 26.2834 27.6982 27.3195 27.1173C28.3037 26.562 29.0731 26.1144 29.6292 25.7731C30.1858 25.4327 30.9112 24.8823 31.8078 24.1254C32.704 23.3676 33.3985 22.6164 33.8903 21.8718C34.3828 21.127 34.825 20.161 35.2163 18.974C35.6084 17.7874 35.8037 16.5121 35.8037 15.1488C35.8034 13.0531 35.2854 11.0522 34.2508 9.14687Z" fill="#6B7280" />
                </svg>