        <svg xmlns="http://www.w3.org/2000/svg" width="24" height="24" viewBox="0 0 24 24" fill="none">
            <g clip-path="url(#clip0_14_38)">
                <path d="M20.785 9.345C20.6084 8.76376 20.3757 8.20111 20.09 7.665L21.5 5.7C21.6369 5.50784 21.7014 5.27347 21.6822 5.03832C21.663 4.80317 21.5613 4.58238 21.395 4.415L19.595 2.615C19.4283 2.44463 19.2062 2.33942 18.9687 2.31833C18.7313 2.29725 18.4941 2.36168 18.3 2.5L16.335 3.9C15.7989 3.61434 15.2362 3.38157 14.655 3.205L14.255 0.825C14.2156 0.58929 14.0931 0.375487 13.9096 0.222315C13.7262 0.069142 13.494 -0.0132717 13.255 -0.00999989H10.73C10.491 -0.0132717 10.2588 0.069142 10.0754 0.222315C9.89192 0.375487 9.7694 0.58929 9.72999 0.825L9.32999 3.205C8.74876 3.38157 8.1861 3.61434 7.64999 3.9L5.69999 2.5C5.50784 2.3631 5.27346 2.29855 5.03831 2.31777C4.80316 2.33698 4.58238 2.43872 4.41499 2.605L2.61499 4.405C2.45072 4.57521 2.34971 4.79656 2.32879 5.03219C2.30786 5.26782 2.36829 5.5035 2.49999 5.7L3.89999 7.665C3.61433 8.20111 3.38156 8.76376 3.20499 9.345L0.824992 9.745C0.589283 9.78441 0.37548 9.90693 0.222307 10.0904C0.0691343 10.2738 -0.0132794 10.506 -0.0100075 10.745V13.285C-0.0132794 13.524 0.0691343 13.7562 0.222307 13.9396C0.37548 14.1231 0.589283 14.2456 0.824992 14.285L3.20499 14.685C3.38156 15.2662 3.61433 15.8289 3.89999 16.365L2.49999 18.3C2.36309 18.4922 2.29855 18.7265 2.31776 18.9617C2.33697 19.1968 2.43871 19.4176 2.60499 19.585L4.40499 21.385C4.57172 21.5554 4.79381 21.6606 5.03125 21.6817C5.26869 21.7028 5.50586 21.6383 5.69999 21.5L7.66499 20.1C8.2011 20.3857 8.76376 20.6184 9.34499 20.795L9.74499 23.175C9.7844 23.4107 9.90692 23.6245 10.0904 23.7777C10.2738 23.9309 10.506 24.0133 10.745 24.01H13.285C13.524 24.0133 13.7562 23.9309 13.9396 23.7777C14.1231 23.6245 14.2456 23.4107 14.285 23.175L14.685 20.795C15.2662 20.6184 15.8289 20.3857 16.365 20.1L18.3 21.5C18.4921 21.6369 18.7265 21.7014 18.9617 21.6822C19.1968 21.663 19.4176 21.5613 19.585 21.395L21.385 19.595C21.5554 19.4283 21.6606 19.2062 21.6817 18.9687C21.7027 18.7313 21.6383 18.4941 21.5 18.3L20.1 16.335C20.3857 15.7989 20.6184 15.2362 20.795 14.655L23.175 14.255C23.4107 14.2156 23.6245 14.0931 23.7777 13.9096C23.9309 13.7262 24.0133 13.494 24.01 13.255V10.705C24.0135 10.4668 23.9317 10.2351 23.7796 10.0518C23.6274 9.86846 23.4148 9.74548 23.18 9.705L20.785 9.345ZM17.915 13C17.7317 14.086 17.253 15.1006 16.5313 15.9326C15.8097 16.7646 14.873 17.382 13.8238 17.717C12.7746 18.052 11.6535 18.0918 10.5832 17.8319C9.51295 17.5721 8.53483 17.0227 7.75605 16.2439C6.97727 15.4652 6.42787 14.487 6.16805 13.4168C5.90822 12.3465 5.948 11.2253 6.28302 10.1762C6.61804 9.127 7.23538 8.19029 8.06739 7.46866C8.8994 6.74702 9.91399 6.26832 11 6.085C11.9438 5.92568 12.912 5.99447 13.8238 6.28562C14.7356 6.57678 15.5645 7.08185 16.2413 7.75866C16.9181 8.43547 17.4232 9.26438 17.7144 10.1762C18.0055 11.088 18.0743 12.0562 17.915 13ZM14.465 12.41C14.3868 12.8613 14.1862 13.2824 13.885 13.6274C13.5838 13.9724 13.1936 14.2281 12.757 14.3665C12.3205 14.5049 11.8542 14.5206 11.4093 14.4121C10.9643 14.3036 10.5578 14.0749 10.2339 13.7511C9.91006 13.4272 9.68139 13.0206 9.57287 12.5757C9.46435 12.1308 9.48014 11.6645 9.61852 11.228C9.7569 10.7914 10.0126 10.4012 10.3576 10.1C10.7026 9.7988 11.1237 9.59817 11.575 9.52C11.9712 9.45092 12.3782 9.47845 12.7615 9.60025C13.1448 9.72205 13.4931 9.93454 13.7767 10.2197C14.0604 10.5048 14.2711 10.8541 14.3909 11.2381C14.5107 11.622 14.5361 12.0292 14.465 12.425V12.41Z" fill="#6B7280" />
            </g>
            <defs>
                <clipPath id="clip0_14_38">
                    <rect width="24" height="24" fill="white" />
                </clipPath>
            </defs>
        </svg>